<?xml version="1.0" encoding="utf-8"?>
<!-- Generator: Adobe Illustrator 16.0.0, SVG Export Plug-In . SVG Version: 6.00 Build 0)  -->
<!DOCTYPE svg PUBLIC "-//W3C//DTD SVG 1.1//EN" "http://www.w3.org/Graphics/SVG/1.1/DTD/svg11.dtd">
<svg version="1.1" xmlns="http://www.w3.org/2000/svg" xmlns:xlink="http://www.w3.org/1999/xlink" x="0px" y="0px" width="768px"
	 height="105px" viewBox="0 328.5 768 105" enable-background="new 0 328.5 768 105" xml:space="preserve">
<g id="Calque_1">
	<g id="Calque_3_-_copie" display="none">
		<g display="inline" enable-background="new    ">
			<path fill="#FFFFFF" d="M148.949,405.823v-44.124h26.713v7.394h-17.411v11.806h16.576v7.274h-16.576v17.649H148.949z"/>
			<path fill="#FFFFFF" d="M195.816,372.909c2.146,0,4.054,0.358,5.724,0.954c1.669,0.596,2.981,1.55,4.174,2.862
				c1.073,1.192,1.908,2.624,2.504,4.412c0.596,1.67,0.834,3.577,0.834,5.725c0,0.835,0,1.788-0.119,2.743
				c-0.119,0.953-0.238,1.788-0.477,2.504h-19.2c0.119,2.385,0.834,4.293,2.146,5.604c1.312,1.432,3.578,2.147,6.559,2.147
				c1.669,0,3.458-0.12,5.009-0.478c1.669-0.357,3.101-0.835,4.412-1.431l1.073,6.201c-1.55,0.835-3.458,1.431-5.486,1.789
				c-2.027,0.477-4.174,0.596-6.32,0.596c-2.743,0-5.128-0.357-7.155-1.192s-3.816-1.908-5.247-3.339
				c-1.431-1.432-2.504-3.221-3.339-5.248c-0.715-2.027-1.073-4.293-1.073-6.797s0.358-4.89,1.073-6.917
				c0.716-2.146,1.789-3.936,3.101-5.366c1.312-1.431,2.981-2.624,5.009-3.458C191.046,373.267,193.312,372.909,195.816,372.909z
				 M195.22,378.991c-1.908,0-3.339,0.596-4.293,1.908c-0.954,1.312-1.55,2.981-1.789,4.89h11.091
				c0.239-2.027-0.119-3.697-0.954-5.009C198.559,379.587,197.128,378.991,195.22,378.991z"/>
			<path fill="#FFFFFF" d="M229.446,372.909c2.147,0,4.055,0.358,5.724,0.954c1.67,0.596,2.981,1.55,4.174,2.862
				c1.073,1.192,1.908,2.624,2.504,4.412c0.596,1.67,0.834,3.577,0.834,5.725c0,0.835,0,1.788-0.119,2.743
				c-0.119,0.953-0.238,1.788-0.477,2.504h-19.2c0.12,2.385,0.835,4.293,2.147,5.604c1.312,1.432,3.578,2.147,6.559,2.147
				c1.669,0,3.458-0.12,5.008-0.478c1.67-0.357,3.101-0.835,4.413-1.431l1.073,6.201c-1.55,0.835-3.458,1.431-5.486,1.789
				c-2.027,0.477-4.174,0.596-6.32,0.596c-2.743,0-5.128-0.357-7.155-1.192s-3.816-1.908-5.247-3.339
				c-1.431-1.432-2.504-3.221-3.339-5.248c-0.715-2.027-1.073-4.293-1.073-6.797s0.358-4.89,1.073-6.917
				c0.716-2.146,1.789-3.936,3.101-5.366c1.312-1.431,2.981-2.624,5.009-3.458C224.676,373.267,226.941,372.909,229.446,372.909z
				 M228.85,378.991c-1.908,0-3.339,0.596-4.293,1.908c-0.954,1.312-1.55,2.981-1.789,4.89h11.091
				c0.238-2.027-0.119-3.697-0.954-5.009C232.189,379.587,230.758,378.991,228.85,378.991z"/>
			<path fill="#FFFFFF" d="M278.579,405.823h-8.706v-4.174c-1.073,1.432-2.385,2.624-4.054,3.459
				c-1.67,0.835-3.578,1.312-5.844,1.312c-1.908,0-3.578-0.357-5.128-1.192s-2.862-1.908-4.055-3.459
				c-1.073-1.431-2.027-3.22-2.624-5.247s-0.954-4.174-0.954-6.559c0-2.743,0.477-5.248,1.312-7.394
				c0.834-2.146,2.027-3.935,3.578-5.366s3.22-2.504,5.247-3.339c2.027-0.715,4.174-1.073,6.44-1.073
				c1.192,0,2.146,0.119,3.101,0.239c0.954,0.119,1.789,0.357,2.504,0.596v-14.668h9.063v46.867H278.579z M263.076,399.503
				c1.431,0,2.624-0.238,3.697-0.835c1.074-0.596,1.908-1.312,2.743-2.146v-16.099c-1.192-0.477-2.743-0.715-4.413-0.715
				c-2.862,0-5.128,0.954-6.678,2.743s-2.266,4.292-2.266,7.513c0,1.431,0.119,2.623,0.357,3.816
				c0.239,1.192,0.716,2.146,1.193,2.98c0.596,0.835,1.312,1.551,2.146,2.027C260.81,399.265,261.883,399.503,263.076,399.503z"/>
			<path fill="#FFFFFF" d="M287.165,358.957h9.063v17.292c0.954-0.954,2.146-1.789,3.458-2.385s3.101-0.954,5.009-0.954
				c2.146,0,4.054,0.358,5.724,1.193c1.67,0.834,3.101,1.908,4.293,3.458c1.192,1.431,2.146,3.22,2.743,5.248
				c0.596,2.027,0.954,4.293,0.954,6.679c0,2.504-0.358,4.77-1.073,6.916c-0.716,2.146-1.908,3.936-3.34,5.486
				c-1.55,1.55-3.339,2.742-5.724,3.577c-2.266,0.835-4.89,1.312-7.871,1.312c-2.504,0-4.889-0.238-7.155-0.834
				c-2.266-0.478-4.293-1.193-6.201-2.147v-44.839H287.165z M302.311,379.945c-1.192,0-2.385,0.239-3.339,0.596
				c-0.954,0.358-1.908,0.954-2.743,1.669v16.696c0.477,0.238,1.192,0.477,1.908,0.596c0.715,0.119,1.55,0.238,2.504,0.238
				c1.55,0,2.981-0.238,4.055-0.715c1.073-0.478,2.027-1.192,2.743-2.146s1.192-2.028,1.551-3.22
				c0.357-1.193,0.477-2.624,0.477-4.055c0-2.863-0.597-5.128-1.789-6.917C306.604,380.78,304.815,379.945,302.311,379.945z"/>
			<path fill="#FFFFFF" d="M342.857,402.365c-1.192,1.192-2.624,2.146-4.293,2.862c-1.67,0.835-3.578,1.192-5.844,1.192
				c-1.432,0-2.743-0.238-3.816-0.716c-1.192-0.477-2.146-1.073-2.862-1.908c-0.835-0.834-1.431-1.788-1.908-2.861
				c-0.477-1.073-0.715-2.267-0.715-3.697c0-2.981,0.954-5.247,2.981-6.798c2.027-1.55,4.77-2.385,8.109-2.623
				c1.312-0.119,2.742-0.119,4.174-0.238c1.431,0,2.742-0.119,3.815-0.119v-1.074c0-2.027-0.477-3.696-1.55-4.77
				c-1.073-1.073-2.624-1.669-4.771-1.669c-1.669,0-3.22,0.239-4.771,0.596c-1.55,0.358-2.861,0.954-3.935,1.55l-1.789-6.32
				c1.67-0.954,3.577-1.669,5.604-2.266c2.027-0.477,4.174-0.716,6.56-0.716c4.293,0,7.632,1.192,10.137,3.458
				c2.504,2.385,3.696,5.843,3.696,10.375v19.081h-8.705v-3.339H342.857z M336.06,400.338c1.312,0,2.505-0.238,3.578-0.716
				c1.073-0.477,2.027-0.954,2.861-1.669v-5.009c-0.954,0.119-1.908,0.119-2.981,0.238s-2.027,0.238-2.861,0.358
				c-1.312,0.238-2.386,0.596-3.221,1.072c-0.834,0.478-1.192,1.312-1.192,2.505c0,1.073,0.358,1.908,1.073,2.385
				C334.032,400.1,334.867,400.338,336.06,400.338z"/>
			<path fill="#FFFFFF" d="M374.698,372.909c1.55,0,3.22,0.12,4.89,0.477c1.669,0.358,3.101,0.835,4.293,1.431l-0.954,6.559
				c-2.027-0.954-4.412-1.431-6.917-1.431c-3.22,0-5.485,0.835-7.036,2.624c-1.55,1.789-2.266,4.173-2.266,7.156
				c0,2.98,0.716,5.366,2.266,7.155c1.551,1.788,3.816,2.623,7.036,2.623c2.505,0,4.771-0.477,6.917-1.431l0.954,6.559
				c-1.192,0.597-2.624,1.073-4.293,1.432c-1.67,0.357-3.34,0.477-4.89,0.477c-2.743,0-5.247-0.477-7.394-1.312
				s-3.936-2.027-5.367-3.578c-1.431-1.55-2.504-3.339-3.22-5.366c-0.715-2.027-1.073-4.293-1.073-6.678
				c0-2.386,0.358-4.651,1.073-6.679c0.716-2.027,1.789-3.816,3.22-5.367c1.432-1.431,3.221-2.624,5.367-3.458
				C369.57,373.267,371.955,372.909,374.698,372.909z"/>
			<path fill="#FFFFFF" d="M390.201,405.823v-46.867h9.063v29.694l10.733-15.145h10.136l-11.448,15.98l13.118,16.337h-10.853
				l-11.567-15.741v15.741H390.201z"/>
			<path fill="#FFFFFF" d="M440.526,361.699h26.594v7.394h-17.292v10.733h16.458v7.394h-16.458v11.448h17.412v7.395h-26.714V361.699
				z"/>
			<path fill="#FFFFFF" d="M494.668,405.823l-6.916-10.255l-6.917,10.255h-9.54l11.687-16.337l-11.329-15.98h9.421l6.679,9.898
				l6.678-9.779h9.421l-11.329,15.861l11.688,16.337H494.668z"/>
			<path fill="#FFFFFF" d="M508.979,373.506h8.706v4.174c1.073-1.431,2.385-2.624,3.936-3.458c1.55-0.835,3.577-1.312,5.843-1.312
				c1.908,0,3.697,0.358,5.367,1.193c1.55,0.834,2.981,1.908,4.055,3.339s2.027,3.22,2.623,5.128
				c0.597,2.027,0.954,4.293,0.954,6.678c0,2.743-0.477,5.247-1.312,7.394s-2.027,3.936-3.578,5.367
				c-1.55,1.431-3.22,2.504-5.247,3.339c-2.027,0.716-4.174,1.073-6.439,1.073c-1.192,0-2.266-0.119-3.22-0.238
				s-1.789-0.358-2.505-0.597v13.834h-9.063v-45.913H508.979z M524.482,379.945c-1.432,0-2.743,0.358-3.816,0.954
				s-1.908,1.312-2.505,2.027v15.98c0.597,0.238,1.192,0.357,2.027,0.477s1.551,0.119,2.386,0.119c3.101,0,5.366-0.954,6.797-2.862
				c1.432-1.908,2.146-4.412,2.146-7.394c0-2.743-0.596-4.889-1.669-6.678C528.537,380.899,526.748,379.945,524.482,379.945z"/>
			<path fill="#FFFFFF" d="M555.488,396.521c0,1.073,0.238,1.789,0.596,2.266c0.478,0.478,1.193,0.716,2.147,0.716
				c0.357,0,0.834,0,1.312-0.119c0.477,0,0.835-0.119,1.312-0.238l0.358,6.32c-0.716,0.238-1.67,0.357-2.743,0.597
				c-1.073,0.119-2.146,0.238-3.22,0.238c-1.67,0-2.981-0.238-4.055-0.716c-1.073-0.477-2.027-1.192-2.743-2.027
				s-1.192-1.789-1.431-2.862c-0.239-1.073-0.478-2.146-0.478-3.339v-38.4h9.063v37.565H555.488z"/>
			<path fill="#FFFFFF" d="M597.704,389.725c0,2.385-0.357,4.531-1.073,6.559c-0.715,2.027-1.789,3.816-3.22,5.366
				c-1.431,1.551-3.101,2.743-5.247,3.578c-2.027,0.835-4.412,1.312-7.155,1.312s-5.128-0.477-7.155-1.312s-3.816-2.027-5.247-3.578
				c-1.432-1.55-2.505-3.339-3.22-5.366c-0.716-2.027-1.073-4.174-1.073-6.559s0.357-4.532,1.073-6.56
				c0.715-2.027,1.788-3.816,3.22-5.366c1.431-1.55,3.101-2.743,5.247-3.578c2.027-0.835,4.412-1.312,7.155-1.312
				s5.128,0.477,7.155,1.312c2.027,0.834,3.816,2.146,5.247,3.578c1.431,1.55,2.505,3.339,3.22,5.366
				C597.228,385.192,597.704,387.34,597.704,389.725z M588.521,389.725c0-1.312-0.119-2.624-0.357-3.816
				c-0.238-1.193-0.716-2.266-1.312-3.22c-0.597-0.954-1.432-1.67-2.386-2.266s-2.146-0.835-3.458-0.835
				c-1.431,0-2.624,0.239-3.578,0.835s-1.669,1.312-2.266,2.266c-0.596,0.954-1.073,2.026-1.312,3.22
				c-0.238,1.192-0.357,2.504-0.357,3.816c0,1.312,0.119,2.623,0.357,3.816c0.238,1.191,0.716,2.266,1.312,3.219
				c0.597,0.954,1.312,1.67,2.266,2.267c0.954,0.596,2.147,0.835,3.578,0.835c1.312,0,2.504-0.239,3.458-0.835
				c0.954-0.597,1.789-1.312,2.386-2.267c0.596-0.953,1.073-2.027,1.312-3.219C588.402,392.348,588.521,391.036,588.521,389.725z"/>
			<path fill="#FFFFFF" d="M623.94,381.257h-1.431c-2.267,0-4.175,0.357-5.605,1.073c-1.55,0.715-2.743,1.669-3.577,3.101v20.392
				h-9.063v-32.317h8.705v5.724c0.597-1.908,1.551-3.339,2.981-4.413c1.312-1.073,3.101-1.55,5.366-1.55
				c1.073,0,1.908,0.119,2.743,0.358v7.632H623.94z"/>
			<path fill="#FFFFFF" d="M642.544,372.909c2.146,0,4.055,0.358,5.725,0.954c1.669,0.716,2.981,1.55,4.174,2.862
				c1.073,1.192,1.908,2.624,2.504,4.412c0.597,1.67,0.835,3.577,0.835,5.725c0,0.835,0,1.788-0.119,2.743
				c-0.119,0.953-0.238,1.788-0.477,2.504h-19.2c0.119,2.385,0.835,4.293,2.146,5.604c1.312,1.432,3.577,2.147,6.559,2.147
				c1.67,0,3.459-0.12,5.009-0.478c1.67-0.357,3.101-0.835,4.412-1.431l1.074,6.201c-1.551,0.835-3.459,1.431-5.486,1.789
				c-2.027,0.477-4.174,0.596-6.32,0.596c-2.743,0-5.128-0.357-7.155-1.192s-3.816-1.908-5.247-3.339
				c-1.432-1.432-2.505-3.221-3.339-5.248c-0.716-2.027-1.073-4.293-1.073-6.797s0.357-4.89,1.073-6.917
				c0.715-2.027,1.788-3.936,3.101-5.366c1.312-1.431,2.981-2.624,5.009-3.458C637.894,373.267,640.04,372.909,642.544,372.909z
				 M642.067,378.991c-1.908,0-3.339,0.596-4.293,1.908c-0.954,1.312-1.551,2.981-1.789,4.89h11.091
				c0.238-2.027-0.119-3.697-0.954-5.009C645.287,379.587,643.976,378.991,642.067,378.991z"/>
			<path fill="#FFFFFF" d="M682.256,381.257h-1.551c-2.266,0-4.174,0.357-5.604,1.073c-1.55,0.715-2.743,1.669-3.577,3.101v20.392
				h-9.063v-32.317h8.705v5.724c0.597-1.908,1.551-3.339,2.981-4.413c1.312-1.073,3.101-1.55,5.366-1.55
				c1.073,0,1.908,0.119,2.743,0.358V381.257z"/>
		</g>
	</g>
	<g id="Calque_1_1_">
		<circle fill="#237DAC" cx="44.438" cy="364.141" r="35.289"/>
		<circle fill="#FFFFFF" cx="64.698" cy="368.821" r="11.796"/>
		<circle fill="#FFFFFF" cx="49.872" cy="385.872" r="9.944"/>
		<circle fill="#FFFFFF" cx="47.541" cy="346.798" r="15.305"/>
	</g>
	
		<text transform="matrix(1 0 0 1 144.2979 397.8887)" display="none" fill="#FFFFFF" font-family="'DINNextRoundedLTPro-Bold'" font-size="57.1909">Feedback Explorer</text>
	<g display="none">
		<path display="inline" fill="#FFFFFF" d="M105.807,354.55h23.105v9.493h-12.753v7.206h12.296v9.494h-12.296v16.127h-10.352V354.55
			z"/>
		<path display="inline" fill="#FFFFFF" d="M163.799,386.919c-1.544,3.546-3.774,6.291-6.462,8.121
			c-2.63,1.888-5.776,2.859-9.036,2.859c-9.093,0-16.814-7.377-16.814-16.813c0-8.865,6.977-17.043,16.642-17.043
			s16.757,7.664,16.757,17.329c0,1.258-0.114,1.772-0.229,2.516h-23.791c0.572,3.774,3.717,6.005,7.435,6.005
			c2.917,0,4.46-1.315,5.776-2.974H163.799z M155.392,377.483c-0.4-1.888-2.288-5.434-7.206-5.434s-6.806,3.546-7.206,5.434H155.392
			z"/>
		<path display="inline" fill="#FFFFFF" d="M200.744,386.919c-1.544,3.546-3.774,6.291-6.462,8.121
			c-2.631,1.888-5.776,2.859-9.036,2.859c-9.093,0-16.813-7.377-16.813-16.813c0-8.865,6.977-17.043,16.642-17.043
			s16.757,7.664,16.757,17.329c0,1.258-0.115,1.772-0.229,2.516h-23.791c0.572,3.774,3.717,6.005,7.435,6.005
			c2.917,0,4.461-1.315,5.776-2.974H200.744z M192.337,377.483c-0.4-1.888-2.288-5.434-7.206-5.434
			c-4.918,0-6.806,3.546-7.206,5.434H192.337z"/>
		<path display="inline" fill="#FFFFFF" d="M240.148,396.87h-9.036v-3.432h-0.114c-0.801,1.315-3.088,4.461-9.494,4.461
			c-9.608,0-15.899-7.435-15.899-16.985c0-10.751,7.664-16.871,15.728-16.871c5.604,0,8.292,2.745,9.322,3.774V354.55h9.494V396.87z
			 M223.048,389.035c5.948,0,8.121-4.861,8.121-8.179c0-3.831-2.745-7.949-8.006-7.949c-5.49,0-8.064,4.289-8.064,7.949
			C215.099,385.775,218.588,389.035,223.048,389.035z"/>
		<path display="inline" fill="#FFFFFF" d="M247.012,354.55h9.493v13.096c3.375-3.603,7.893-3.603,9.208-3.603
			c6.634,0,15.613,4.747,15.613,16.757c0,11.438-7.949,17.157-16.013,17.157c-4.461,0-7.893-2.174-9.093-4.461h-0.115v3.374h-9.093
			V354.55z M263.882,389.093c4.861,0,7.95-3.946,7.95-8.121c0-4.118-3.088-8.064-7.778-8.064c-5.033,0-7.892,4.06-7.892,8.006
			C256.162,385.317,259.136,389.093,263.882,389.093z"/>
		<path display="inline" fill="#FFFFFF" d="M319.986,396.87h-9.493v-3.432h-0.115c-1.601,3.089-5.547,4.519-9.265,4.519
			c-10.065,0-15.956-7.893-15.956-16.985c0-10.409,7.492-16.929,15.956-16.929c5.204,0,8.121,2.517,9.265,4.461h0.115v-3.374h9.493
			V396.87z M302.543,389.093c5.948,0,7.95-5.033,7.95-8.121c0-3.832-2.631-8.064-8.007-8.064c-5.433,0-7.835,4.576-7.835,8.178
			C294.651,384.06,296.824,389.093,302.543,389.093z"/>
		<path display="inline" fill="#FFFFFF" d="M358.99,384.803c-1.716,7.206-8.064,13.097-16.643,13.097
			c-9.608,0-16.985-7.549-16.985-16.985c0-9.322,7.263-16.871,16.757-16.871c8.407,0,15.213,5.547,16.813,13.325h-9.607
			c-1.029-2.173-2.917-4.46-6.863-4.46c-4.518-0.229-7.549,3.488-7.549,8.064c0,4.632,3.031,8.063,7.549,8.063
			c3.946,0,5.834-2.288,6.863-4.232H358.99z"/>
		<path display="inline" fill="#FFFFFF" d="M363.68,354.55h9.494v22.075h0.114l8.807-11.495h11.267l-11.953,13.954l11.61,17.786
			h-10.752l-8.979-15.27h-0.114v15.27h-9.494V354.55z"/>
		<path display="inline" fill="#FFFFFF" d="M415.208,354.55h23.505v9.493h-13.154v6.577h12.754v9.493h-12.754v7.264h13.154v9.493
			h-23.505V354.55z"/>
		<path display="inline" fill="#FFFFFF" d="M475.887,365.13l-10.694,14.755l12.296,16.985h-11.609l-6.348-9.837l-6.463,9.837
			h-11.438l12.066-16.985l-10.694-14.755h11.381l5.147,8.35l5.09-8.35H475.887z"/>
		<path display="inline" fill="#FFFFFF" d="M481.034,365.13h8.921v3.488h0.058h0.114c1.888-2.402,5.033-4.575,9.895-4.575
			c11.266,0,15.498,9.894,15.498,17.271c0,9.15-6.405,16.643-15.441,16.643c-5.719,0-8.407-2.745-9.551-3.946v13.439h-9.493V365.13z
			 M506.026,381.028c0-3.774-2.745-8.121-7.95-8.121c-5.204,0-7.949,4.346-7.949,8.121c0,4.004,2.974,8.064,7.949,8.064
			S506.026,385.032,506.026,381.028z"/>
		<path display="inline" fill="#FFFFFF" d="M520.896,354.55h9.493v42.32h-9.493V354.55z"/>
		<path display="inline" fill="#FFFFFF" d="M552.864,364.1c11.553,0,17.101,9.093,17.101,16.872c0,7.777-5.548,16.871-17.101,16.871
			c-11.552,0-17.1-9.094-17.1-16.871C535.765,373.193,541.312,364.1,552.864,364.1z M552.864,388.978
			c4.118,0,7.606-3.374,7.606-8.006c0-4.633-3.488-8.007-7.606-8.007c-4.117,0-7.606,3.374-7.606,8.007
			C545.258,385.604,548.747,388.978,552.864,388.978z"/>
		<path display="inline" fill="#FFFFFF" d="M575.283,365.13h8.922v3.374h0.114c0.801-1.544,2.459-4.461,7.949-4.461v9.551
			c-4.403,0.114-7.491,1.029-7.491,5.833v17.443h-9.494V365.13z"/>
		<path display="inline" fill="#FFFFFF" d="M626.469,386.919c-1.545,3.546-3.774,6.291-6.463,8.121
			c-2.631,1.888-5.776,2.859-9.036,2.859c-9.093,0-16.813-7.377-16.813-16.813c0-8.865,6.977-17.043,16.643-17.043
			c9.665,0,16.756,7.664,16.756,17.329c0,1.258-0.114,1.772-0.229,2.516h-23.791c0.572,3.774,3.718,6.005,7.435,6.005
			c2.917,0,4.461-1.315,5.776-2.974H626.469z M618.062,377.483c-0.4-1.888-2.288-5.434-7.206-5.434s-6.806,3.546-7.206,5.434
			H618.062z"/>
		<path display="inline" fill="#FFFFFF" d="M632.759,365.13h8.922v3.374h0.114c0.801-1.544,2.459-4.461,7.949-4.461v9.551
			c-4.403,0.114-7.491,1.029-7.491,5.833v17.443h-9.494V365.13z"/>
	</g>
	<g display="none">
		<path display="inline" fill="#FFFFFF" d="M106.429,368.36v13.139h7.57c0.783,0,1.393,0.609,1.393,1.394v2.783
			c0,0.784-0.609,1.393-1.393,1.393h-7.57v17.403c0,0.782-0.609,1.392-1.392,1.392h-2.784c-0.783,0-1.393-0.609-1.393-1.392v-38.896
			c0-1.566,1.218-2.785,2.784-2.785h10.355c0.783,0,1.393,0.609,1.393,1.393v2.785c0,0.783-0.609,1.392-1.393,1.392H106.429z"/>
		<path display="inline" fill="#FFFFFF" d="M128.182,368.36v13.139h7.57c0.783,0,1.393,0.609,1.393,1.394v2.783
			c0,0.784-0.609,1.393-1.393,1.393h-7.57v13.227h7.57c0.783,0,1.393,0.609,1.393,1.392v2.785c0,0.782-0.609,1.392-1.393,1.392
			h-10.355c-1.566,0-2.785-1.305-2.785-2.783v-37.505c0-1.566,1.219-2.785,2.785-2.785h10.355c0.783,0,1.393,0.609,1.393,1.393
			v2.785c0,0.783-0.609,1.392-1.393,1.392H128.182z"/>
		<path display="inline" fill="#FFFFFF" d="M149.934,368.36v13.139h7.571c0.783,0,1.393,0.609,1.393,1.394v2.783
			c0,0.784-0.61,1.393-1.393,1.393h-7.571v13.227h7.571c0.783,0,1.393,0.609,1.393,1.392v2.785c0,0.782-0.61,1.392-1.393,1.392
			H147.15c-1.566,0-2.785-1.305-2.785-2.783v-37.505c0-1.566,1.219-2.785,2.785-2.785h10.355c0.783,0,1.393,0.609,1.393,1.393v2.785
			c0,0.783-0.61,1.392-1.393,1.392H149.934z"/>
		<path display="inline" fill="#FFFFFF" d="M186.219,372.885v22.885c0,5.568-4.438,10.094-10.007,10.094h-7.31
			c-1.479,0-2.784-1.305-2.784-2.783v-37.505c0-1.566,1.305-2.785,2.784-2.785h7.31C181.78,362.791,186.219,367.316,186.219,372.885
			z M180.65,372.885c0-2.524-2.001-4.525-4.438-4.525h-4.525v31.848h4.525c2.437,0,4.438-2.002,4.438-4.438V372.885z"/>
		<path display="inline" fill="#FFFFFF" d="M213.54,377.062c0,2.872-1.131,5.396-3.132,7.223c2.001,1.827,3.132,4.437,3.132,7.309
			v4.177c0,5.568-4.524,10.094-10.007,10.094h-7.309c-1.566,0-2.785-1.305-2.785-2.783v-37.505c0-1.566,1.219-2.785,2.785-2.785
			h7.309c5.482,0,10.007,4.526,10.007,10.094V377.062z M207.971,372.885c0-2.524-2.001-4.525-4.438-4.525h-4.525v13.139h4.525
			c2.437,0,4.438-2.001,4.438-4.438V372.885z M203.533,387.068h-4.525v13.14h4.525c2.437,0,4.438-2.002,4.438-4.438v-4.177
			C207.971,389.069,205.97,387.068,203.533,387.068z"/>
		<path display="inline" fill="#FFFFFF" d="M240.861,372.885v31.587c0,0.782-0.609,1.392-1.393,1.392h-2.785
			c-0.783,0-1.392-0.609-1.392-1.392v-17.316h-8.963v17.316c0,0.782-0.608,1.392-1.392,1.392h-2.784
			c-0.783,0-1.393-0.609-1.393-1.392v-31.587c0-5.482,4.524-10.007,10.094-10.007C236.336,362.878,240.861,367.402,240.861,372.885z
			 M235.292,372.885c0-2.437-2.001-4.438-4.438-4.438c-2.523,0-4.525,2.001-4.525,4.438v8.701h8.963V372.885z"/>
		<path display="inline" fill="#FFFFFF" d="M262.526,375.756v-2.958c0-2.437-2.001-4.438-4.438-4.438
			c-2.437,0-4.438,2.001-4.438,4.438v23.059c0,2.437,2.001,4.438,4.438,4.438c2.436,0,4.438-2.002,4.438-4.438v-3.22
			c0-0.782,0.609-1.392,1.392-1.392h2.785c0.783,0,1.393,0.609,1.393,1.392v3.22c0,5.481-4.524,10.007-10.006,10.007
			c-5.569,0-10.007-4.525-10.007-10.007v-23.059c0-5.481,4.438-10.007,10.007-10.007c5.482,0,10.006,4.526,10.006,10.007v2.958
			c0,0.784-0.609,1.393-1.393,1.393h-2.785C263.135,377.148,262.526,376.54,262.526,375.756z"/>
		<path display="inline" fill="#FFFFFF" d="M294.545,376.975c0,2.871-1.219,5.482-3.133,7.31c1.914,1.827,3.133,4.351,3.133,7.222
			v12.966c0,0.695-0.61,1.392-1.393,1.392h-2.785c-0.783,0-1.392-0.696-1.392-1.392v-12.966c0-2.437-2.001-4.438-4.524-4.438h-4.438
			v17.403c0,0.695-0.609,1.392-1.393,1.392h-2.784c-0.783,0-1.393-0.696-1.393-1.392v-17.403v-5.569v-17.316
			c0-0.783,0.609-1.393,1.393-1.393h2.784c0.783,0,1.393,0.609,1.393,1.393v17.316h4.438c2.523,0,4.524-2.001,4.524-4.524v-12.792
			c0-0.783,0.609-1.393,1.392-1.393h2.785c0.783,0,1.393,0.609,1.393,1.393V376.975z"/>
		<path display="inline" fill="#FFFFFF" d="M319.864,368.36v13.139h7.57c0.783,0,1.392,0.609,1.392,1.394v2.783
			c0,0.784-0.609,1.393-1.392,1.393h-7.57v13.227h7.57c0.783,0,1.392,0.609,1.392,1.392v2.785c0,0.782-0.609,1.392-1.392,1.392
			h-10.355c-1.566,0-2.784-1.305-2.784-2.783v-37.505c0-1.566,1.217-2.785,2.784-2.785h10.355c0.783,0,1.392,0.609,1.392,1.393
			v2.785c0,0.783-0.609,1.392-1.392,1.392H319.864z"/>
		<path display="inline" fill="#FFFFFF" d="M354.408,375.408l-5.048,9.05l5.048,9.048c1.131,1.566,1.741,3.481,1.741,5.57v5.395
			c0,0.695-0.61,1.392-1.393,1.392h-2.785c-0.783,0-1.393-0.696-1.393-1.392v-5.395c0-0.522-0.087-1.045-0.261-1.48l-4.265-7.482
			l-4.177,7.482c-0.172,0.436-0.26,0.958-0.26,1.48v5.395c0,0.695-0.609,1.392-1.393,1.392h-2.784c-0.783,0-1.392-0.696-1.392-1.392
			v-5.395c0-2.089,0.609-4.004,1.741-5.57l5.046-9.048l-5.133-9.05c-1.045-1.567-1.654-3.48-1.654-5.569v-5.656
			c0-0.783,0.609-1.393,1.392-1.393h2.784c0.783,0,1.393,0.609,1.393,1.393v5.656c0,0.521,0.088,0.957,0.26,1.479l4.177,7.396
			l4.265-7.396c0.174-0.522,0.261-0.958,0.261-1.479v-5.656c0-0.783,0.609-1.393,1.393-1.393h2.785c0.782,0,1.393,0.609,1.393,1.393
			v5.656C356.149,371.928,355.539,373.841,354.408,375.408z"/>
		<path display="inline" fill="#FFFFFF" d="M383.47,372.798v4.177c0,5.569-4.525,10.094-10.007,10.094h-4.524v17.403
			c0,0.695-0.609,1.392-1.393,1.392h-2.785c-0.696,0-1.392-0.696-1.392-1.392v-17.403v-5.569v-17.316
			c0-0.783,0.695-1.393,1.392-1.393h8.702C378.944,362.791,383.47,367.316,383.47,372.798z M377.901,372.798
			c0-2.437-2.002-4.438-4.438-4.438h-4.524v13.139h4.524c2.437,0,4.438-2.001,4.438-4.524V372.798z"/>
		<path display="inline" fill="#FFFFFF" d="M403.307,401.687v2.785c0,0.695-0.609,1.392-1.392,1.392h-10.268
			c-1.566,0-2.784-1.305-2.784-2.783v-38.897c0-0.783,0.608-1.393,1.393-1.393h2.783c0.696,0,1.394,0.609,1.394,1.393v36.112h7.482
			C402.697,400.295,403.307,400.904,403.307,401.687z"/>
		<path display="inline" fill="#FFFFFF" d="M427.148,372.798v22.972c0,5.568-4.525,10.094-10.008,10.094
			c-5.568,0-10.093-4.525-10.093-10.094v-22.972c0-5.481,4.524-10.007,10.093-10.007
			C422.623,362.791,427.148,367.316,427.148,372.798z M421.579,372.798c0-2.437-2.002-4.438-4.438-4.438
			c-2.522,0-4.523,2.001-4.523,4.438v22.972c0,2.523,2.001,4.525,4.523,4.525c2.437,0,4.438-2.002,4.438-4.525V372.798z"/>
		<path display="inline" fill="#FFFFFF" d="M452.642,376.975c0,2.871-1.131,5.482-3.045,7.31c1.914,1.827,3.045,4.351,3.045,7.222
			v12.966c0,0.695-0.609,1.392-1.392,1.392h-2.785c-0.782,0-1.392-0.696-1.392-1.392v-12.966c0-2.437-2.002-4.438-4.438-4.438
			h-4.438v17.403c0,0.695-0.696,1.392-1.392,1.392h-2.785c-0.782,0-1.392-0.696-1.392-1.392v-38.896
			c0-1.566,1.217-2.785,2.783-2.785h7.223c5.568,0,10.007,4.526,10.007,10.007V376.975z M447.073,372.798
			c0-2.437-2.002-4.438-4.438-4.438h-4.438v13.139h4.438c2.437,0,4.438-2.001,4.438-4.524V372.798z"/>
		<path display="inline" fill="#FFFFFF" d="M465.434,368.36v13.139h7.569c0.782,0,1.393,0.609,1.393,1.394v2.783
			c0,0.784-0.61,1.393-1.393,1.393h-7.569v13.227h7.569c0.782,0,1.393,0.609,1.393,1.392v2.785c0,0.782-0.61,1.392-1.393,1.392
			h-10.354c-1.566,0-2.785-1.305-2.785-2.783v-37.505c0-1.566,1.219-2.785,2.785-2.785h10.354c0.782,0,1.393,0.609,1.393,1.393
			v2.785c0,0.783-0.61,1.392-1.393,1.392H465.434z"/>
		<path display="inline" fill="#FFFFFF" d="M501.194,376.975c0,2.871-1.132,5.482-3.046,7.31c1.914,1.827,3.046,4.351,3.046,7.222
			v12.966c0,0.695-0.61,1.392-1.393,1.392h-2.785c-0.782,0-1.393-0.696-1.393-1.392v-12.966c0-2.437-2.001-4.438-4.438-4.438h-4.437
			v17.403c0,0.695-0.697,1.392-1.393,1.392h-2.785c-0.782,0-1.392-0.696-1.392-1.392v-38.896c0-1.566,1.218-2.785,2.784-2.785h7.222
			c5.569,0,10.008,4.526,10.008,10.007V376.975z M495.624,372.798c0-2.437-2.001-4.438-4.438-4.438h-4.437v13.139h4.437
			c2.437,0,4.438-2.001,4.438-4.524V372.798z"/>
	</g>
	<g>
		<path fill="#FFFFFF" d="M104.455,346.342v-6.339h23.604c1.404,0,2.416,0.317,3.032,0.95c0.617,0.633,0.926,1.61,0.926,2.932v6.171
			h-7.261v-2.458c0-0.837-0.419-1.256-1.256-1.256h-7.847v11.505h12.985v6.34h-12.985v16.42h-7.484v-34.265H104.455z"/>
		<path fill="#FFFFFF" d="M134.195,366.029c0-4.504,1.368-8.177,4.105-11.016s6.302-4.259,10.695-4.259
			c4.04,0,7.205,1.308,9.495,3.923c2.29,2.616,3.435,5.925,3.435,9.927l-0.169,2.682h-20.158c0.26,2.432,1.21,4.319,2.848,5.663
			s3.603,2.016,5.893,2.016c1.377,0,2.75-0.261,4.119-0.781c1.369-0.521,2.378-1.047,3.03-1.577l1.033-0.822l3.066,5.008
			c-0.112,0.115-0.284,0.281-0.517,0.5c-0.233,0.22-0.74,0.58-1.522,1.085s-1.591,0.952-2.429,1.343
			c-0.837,0.39-1.917,0.752-3.239,1.085s-2.662,0.499-4.021,0.499c-4.691,0-8.475-1.479-11.351-4.439
			C135.633,373.904,134.195,370.292,134.195,366.029z M141.791,362.26h12.65c-0.037-1.713-0.582-3.123-1.633-4.231
			c-1.052-1.107-2.341-1.662-3.868-1.662c-1.862,0-3.412,0.526-4.649,1.578C143.052,358.997,142.219,360.435,141.791,362.26z"/>
		<path fill="#FFFFFF" d="M166.03,366.029c0-4.504,1.368-8.177,4.105-11.016s6.302-4.259,10.695-4.259
			c4.04,0,7.205,1.308,9.495,3.923c2.29,2.616,3.435,5.925,3.435,9.927l-0.169,2.682h-20.158c0.26,2.432,1.21,4.319,2.848,5.663
			s3.603,2.016,5.893,2.016c1.377,0,2.75-0.261,4.119-0.781c1.369-0.521,2.378-1.047,3.03-1.577l1.033-0.822l3.066,5.008
			c-0.112,0.115-0.284,0.281-0.517,0.5c-0.233,0.22-0.74,0.58-1.522,1.085s-1.591,0.952-2.429,1.343
			c-0.837,0.39-1.917,0.752-3.239,1.085s-2.662,0.499-4.021,0.499c-4.691,0-8.475-1.479-11.351-4.439
			C167.467,373.904,166.03,370.292,166.03,366.029z M173.625,362.26h12.65c-0.037-1.713-0.582-3.123-1.633-4.231
			c-1.052-1.107-2.341-1.662-3.868-1.662c-1.862,0-3.412,0.526-4.649,1.578C174.886,358.997,174.054,360.435,173.625,362.26z"/>
		<path fill="#FFFFFF" d="M197.809,365.968c0-4.562,1.228-8.237,3.686-11.028c2.458-2.79,5.617-4.186,9.479-4.186
			c3.712,0,6.417,1.071,8.114,3.212l0.308,0.398h0.112c-0.038-0.512-0.056-1.099-0.056-1.763v-5.049c0-0.807-0.419-1.21-1.257-1.21
			h-2.29v-6.339h6.926c2.587,0,3.881,1.329,3.881,3.987v29.044c0,0.822,0.419,1.232,1.257,1.232h2.234v6.34H223.5
			c-2.401,0-3.602-1.022-3.602-3.066v-1.129h-0.112c-0.075,0.116-0.177,0.29-0.308,0.521c-0.13,0.23-0.457,0.625-0.979,1.181
			c-0.522,0.556-1.096,1.05-1.721,1.48s-1.483,0.824-2.574,1.179c-1.091,0.354-2.271,0.531-3.539,0.531
			c-3.898,0-7.015-1.416-9.352-4.248C198.977,374.225,197.809,370.529,197.809,365.968z M205.069,365.968
			c0,2.696,0.667,4.87,2,6.521c1.333,1.65,3.073,2.476,5.218,2.476c2.07,0,3.81-0.757,5.218-2.27
			c1.408-1.513,2.112-3.774,2.112-6.782c0-2.392-0.63-4.46-1.889-6.205c-1.259-1.743-3.036-2.616-5.33-2.616
			c-2.108,0-3.857,0.794-5.247,2.383S205.069,363.229,205.069,365.968z"/>
		<path fill="#FFFFFF" d="M232.492,346.342v-6.339h6.925c2.587,0,3.882,1.3,3.882,3.901v8.502l-0.112,2.47h0.112
			c0.074-0.113,0.176-0.256,0.307-0.426c0.13-0.17,0.456-0.497,0.977-0.98c0.521-0.483,1.094-0.91,1.718-1.279
			c0.624-0.37,1.452-0.701,2.485-0.995c1.033-0.293,2.117-0.44,3.253-0.44c3.912,0,7.035,1.407,9.371,4.219
			c2.335,2.813,3.503,6.485,3.503,11.014c0,4.593-1.242,8.293-3.726,11.103c-2.484,2.81-5.683,4.214-9.594,4.214
			c-1.787,0-3.407-0.354-4.859-1.064c-1.452-0.709-2.448-1.418-2.988-2.127l-0.838-1.064h-0.14c0.074,0.559,0.121,1.234,0.14,2.025
			v1.533h-6.87v-33.014c0-0.833-0.419-1.25-1.257-1.25H232.492z M243.076,366.153c0,2.397,0.638,4.466,1.913,6.204
			c1.275,1.739,3.058,2.608,5.348,2.608c2.066,0,3.802-0.796,5.208-2.388c1.405-1.593,2.108-3.752,2.108-6.479
			c0-2.69-0.666-4.864-1.997-6.521c-1.332-1.656-3.086-2.484-5.264-2.484c-2.066,0-3.803,0.76-5.208,2.279
			C243.778,360.891,243.076,363.151,243.076,366.153z"/>
		<path fill="#FFFFFF" d="M268.46,372.048c0-1.429,0.302-2.707,0.906-3.834c0.604-1.127,1.45-2.024,2.537-2.693
			s2.221-1.241,3.402-1.718c1.18-0.477,2.481-0.806,3.903-0.99c1.422-0.183,2.621-0.312,3.597-0.386
			c0.976-0.074,1.957-0.112,2.942-0.112h0.92v-0.251c0-2.066-0.43-3.532-1.288-4.398c-0.859-0.866-2.231-1.299-4.117-1.299
			c-0.916,0-1.793,0.14-2.633,0.419s-1.26,0.782-1.26,1.508v1.564h-7.261v-3.1c0-1.266,0.41-2.336,1.229-3.211
			c0.819-0.875,1.902-1.494,3.249-1.857c1.346-0.363,2.546-0.61,3.6-0.74c1.054-0.13,2.098-0.195,3.132-0.195
			c8.481,0,12.722,3.873,12.722,11.617v10.679c0,0.812,0.405,1.217,1.217,1.217h2.218v6.34h-6.53c-1.266,0-2.2-0.29-2.805-0.87
			c-0.605-0.58-0.907-1.349-0.907-2.306l0.057-1.242h-0.114l-0.28,0.58c-0.113,0.222-0.417,0.627-0.911,1.217
			c-0.495,0.59-1.051,1.111-1.667,1.562c-0.616,0.452-1.461,0.857-2.536,1.217s-2.219,0.539-3.433,0.539
			c-2.722,0-5.051-0.832-6.986-2.498S268.46,374.888,268.46,372.048z M275.721,371.724c0,1.078,0.382,2.008,1.147,2.792
			c0.765,0.784,1.847,1.175,3.246,1.175c1.867,0,3.445-0.814,4.733-2.445c1.288-1.63,1.933-3.392,1.933-5.285v-0.674h-1.26
			C278.986,367.287,275.721,368.765,275.721,371.724z"/>
		<path fill="#FFFFFF" d="M300.407,366.154c0-4.298,1.444-7.938,4.332-10.923c2.888-2.984,6.747-4.476,11.576-4.476
			c1.49,0,2.981,0.182,4.471,0.544c1.491,0.363,2.884,1.066,4.179,2.108c1.295,1.043,1.943,2.346,1.943,3.91v3.435h-6.423v-1.5
			c0-0.684-0.438-1.215-1.315-1.592c-0.877-0.377-1.829-0.566-2.854-0.566c-2.519,0-4.59,0.848-6.213,2.542
			c-1.624,1.694-2.435,3.849-2.435,6.464c0,2.799,0.886,4.977,2.659,6.533c1.772,1.555,3.918,2.333,6.437,2.333
			c2.981,0,5.767-1.206,8.357-3.618l0.308-0.276l3.016,4.979c-0.111,0.148-0.284,0.338-0.517,0.57
			c-0.233,0.23-0.74,0.648-1.522,1.25c-0.782,0.604-1.611,1.136-2.487,1.6c-0.876,0.463-2.018,0.885-3.424,1.265
			c-1.407,0.38-2.856,0.569-4.347,0.569c-4.681,0-8.474-1.449-11.38-4.348C301.859,374.057,300.407,370.457,300.407,366.154z"/>
		<path fill="#FFFFFF" d="M330.119,346.342v-6.339h6.926c1.414,0,2.415,0.226,3.002,0.677c0.586,0.452,0.879,1.322,0.879,2.612
			v18.213h2.179c1.34,0,2.252-0.355,2.736-1.065l5.948-8.987h8.07l-7.372,10.88c-0.373,0.535-0.745,0.987-1.117,1.356
			c-0.373,0.369-0.652,0.618-0.838,0.748l-0.224,0.166v0.115c0.688,0.271,1.369,1.062,2.039,2.373l3.323,6.123
			c0.372,0.702,1.173,1.053,2.401,1.053h1.955v6.34h-5.39c-1.267,0-2.202-0.17-2.807-0.507c-0.605-0.338-1.187-1.038-1.745-2.099
			l-4.888-9.104c-0.428-0.702-1.321-1.052-2.681-1.052h-1.592v12.762h-7.26v-33.014c0-0.833-0.419-1.25-1.257-1.25H330.119z"/>
		<path fill="#FFFFFF" d="M377.844,346.342v-6.339h24.928c2.631,0,3.946,1.294,3.946,3.882v6.171h-7.26v-2.458
			c0-0.837-0.419-1.256-1.257-1.256h-9.16v10.667h13.153v6.339h-13.153v9.663c0,0.838,0.419,1.256,1.257,1.256h9.383
			c0.838,0,1.257-0.418,1.257-1.256v-2.458h7.261v6.171c0,1.379-0.322,2.37-0.966,2.975c-0.644,0.605-1.647,0.908-3.011,0.908
			h-18.716c-1.402,0-2.41-0.308-3.025-0.922c-0.615-0.615-0.923-1.602-0.923-2.961v-30.382H377.844z"/>
		<path fill="#FFFFFF" d="M409.566,380.607l9.467-14.638l-4.804-7.208c-0.429-0.646-1.163-0.97-2.206-0.97h-2.122v-6.339h5.082
			c1.229,0,2.164,0.18,2.807,0.539c0.643,0.359,1.289,1.106,1.94,2.24l2.849,4.876l0.922,1.9h0.111
			c0.335-0.775,0.643-1.408,0.922-1.9l2.876-4.876c0.651-1.115,1.289-1.857,1.913-2.226c0.623-0.368,1.559-0.553,2.807-0.553h5.055
			v6.339h-2.066c-1.062,0-1.807,0.324-2.234,0.97l-4.859,7.208l9.551,14.638h-8.07l-5.083-8.068l-0.81-1.523h-0.111
			c-0.298,0.609-0.577,1.117-0.838,1.523l-5.055,8.068H409.566z"/>
		<path fill="#FFFFFF" d="M439.391,357.792v-6.339h6.473c2.458,0,3.696,0.95,3.715,2.849v1.168h0.112l0.307-0.511
			c0.131-0.208,0.46-0.582,0.99-1.122c0.529-0.539,1.11-1.013,1.743-1.419c0.632-0.407,1.51-0.786,2.635-1.136
			c1.125-0.351,2.31-0.526,3.556-0.526c3.908,0,7.038,1.41,9.391,4.229c2.352,2.819,3.528,6.499,3.528,11.04
			c0,4.582-1.251,8.273-3.752,11.077c-2.5,2.804-5.686,4.204-9.557,4.204c-1.06,0-2.077-0.139-3.053-0.417s-1.765-0.615-2.369-1.009
			c-0.604-0.394-1.143-0.778-1.616-1.152c-0.474-0.375-0.812-0.697-1.017-0.965l-0.279-0.434h-0.111
			c0.074,0.695,0.111,1.54,0.111,2.535v12.194h-7.261v-33.015c0-0.833-0.419-1.25-1.257-1.25H439.391z M450.029,366.187
			c0,2.389,0.628,4.449,1.882,6.181c1.254,1.732,3.024,2.598,5.31,2.598c2.1,0,3.851-0.792,5.254-2.379
			c1.402-1.586,2.104-3.737,2.104-6.454c0-2.7-0.665-4.882-1.993-6.545c-1.328-1.663-3.08-2.494-5.254-2.494
			c-2.062,0-3.795,0.763-5.198,2.288S450.029,363.174,450.029,366.187z"/>
		<path fill="#FFFFFF" d="M474.269,346.342v-6.339h6.926c2.587,0,3.881,1.329,3.881,3.987v29.039c0,0.826,0.419,1.238,1.257,1.238
			h2.234v6.34h-6.87c-1.378,0-2.369-0.318-2.974-0.955c-0.605-0.637-0.907-1.66-0.907-3.068v-29.002
			c0-0.826-0.419-1.239-1.257-1.239H474.269z"/>
		<path fill="#FFFFFF" d="M496.276,376.927c-3.055-2.918-4.582-6.551-4.582-10.898c0-4.346,1.522-7.979,4.567-10.897
			c3.045-2.918,6.824-4.377,11.336-4.377c4.513,0,8.301,1.459,11.364,4.377c3.063,2.918,4.596,6.551,4.596,10.897
			c0,4.348-1.528,7.98-4.582,10.898c-3.055,2.918-6.847,4.377-11.378,4.377C503.104,381.304,499.33,379.845,496.276,376.927z
			 M498.955,366.042c0,2.618,0.839,4.76,2.518,6.426c1.678,1.664,3.72,2.497,6.125,2.497c2.443,0,4.503-0.833,6.182-2.497
			c1.678-1.666,2.518-3.808,2.518-6.426c0-2.58-0.849-4.717-2.546-6.41c-1.696-1.693-3.748-2.54-6.153-2.54s-4.447,0.847-6.125,2.54
			C499.794,361.326,498.955,363.462,498.955,366.042z"/>
		<path fill="#FFFFFF" d="M526.657,357.792v-6.339h6.67c2.607,0,3.912,1.146,3.912,3.437v1.69l-0.11,1.773h0.11
			c0.689-2.13,1.862-3.882,3.52-5.257s3.575-2.062,5.753-2.062l1.312,0.109v6.984c-0.503-0.074-1.099-0.111-1.787-0.111
			c-1.713,0-3.314,0.521-4.804,1.562s-2.531,2.574-3.127,4.6c-0.429,1.501-0.643,3.095-0.643,4.782v11.648h-7.261v-21.568
			c0-0.832-0.419-1.248-1.257-1.248H526.657z"/>
		<path fill="#FFFFFF" d="M549.807,366.029c0-4.504,1.369-8.177,4.105-11.016s6.302-4.259,10.695-4.259
			c4.04,0,7.205,1.308,9.495,3.923c2.289,2.616,3.435,5.925,3.435,9.927l-0.169,2.682H557.21c0.261,2.432,1.21,4.319,2.849,5.663
			c1.638,1.344,3.603,2.016,5.892,2.016c1.378,0,2.751-0.261,4.119-0.781s2.378-1.047,3.03-1.577l1.033-0.822l3.066,5.008
			c-0.111,0.115-0.284,0.281-0.517,0.5c-0.233,0.22-0.74,0.58-1.522,1.085c-0.781,0.505-1.591,0.952-2.429,1.343
			c-0.838,0.39-1.918,0.752-3.239,1.085s-2.661,0.499-4.021,0.499c-4.691,0-8.475-1.479-11.351-4.439
			C551.245,373.904,549.807,370.292,549.807,366.029z M557.402,362.26h12.65c-0.037-1.713-0.582-3.123-1.634-4.231
			c-1.052-1.107-2.341-1.662-3.867-1.662c-1.862,0-3.412,0.526-4.649,1.578C558.664,358.997,557.831,360.435,557.402,362.26z"/>
		<path fill="#FFFFFF" d="M580.943,357.792v-6.339h6.67c2.607,0,3.912,1.146,3.912,3.437v1.69l-0.11,1.773h0.11
			c0.689-2.13,1.862-3.882,3.52-5.257s3.575-2.062,5.753-2.062l1.312,0.109v6.984c-0.503-0.074-1.099-0.111-1.787-0.111
			c-1.713,0-3.314,0.521-4.804,1.562s-2.531,2.574-3.127,4.6c-0.429,1.501-0.643,3.095-0.643,4.782v11.648h-7.261v-21.568
			c0-0.832-0.419-1.248-1.257-1.248H580.943z"/>
	</g>
	<g id="Calque_1_2_" opacity="0.7">
		<path fill="#FFFFFF" d="M440.805,397.802c4.344,0,7.727,2.063,10.132,6.191c0.822,1.614,1.231,3.372,1.231,5.264v0.422
			c-0.192,1.104-0.715,1.653-1.561,1.653h-17.382c0.645,2.191,2.04,3.861,4.183,5.028c1.262,0.484,2.447,0.725,3.545,0.725
			c1.28,0,2.736-0.409,4.385-1.236c1.403-0.634,1.959,0.694,1.959,1.5v0.244c0,1.355-1.729,2.533-5.922,2.795H440.8
			c-4.052,0-7.297-1.896-9.735-5.684c-0.98-1.79-1.479-3.661-1.479-5.611c0-4.128,1.96-7.419,5.861-9.867
			C437.348,398.272,439.128,397.802,440.805,397.802 M432.962,408.115H448.8c0-1.13-0.659-2.59-1.985-4.385
			c-1.811-1.704-3.588-2.556-5.349-2.556h-0.9c-2.645,0-4.823,1.291-6.519,3.874C433.453,406.077,433.098,407.1,432.962,408.115"/>
		<path fill="#FFFFFF" d="M466.997,397.911c2.878,0,5.492,1.088,7.821,3.262c2.231,2.351,3.353,4.984,3.353,7.909
			c0,4.179-1.985,7.474-5.95,9.862c-1.71,0.87-3.372,1.301-4.972,1.301h-0.661c-2.585,0-5.107-1.125-7.578-3.35v11.26
			c0,0.688-0.435,1.378-1.628,1.387c-1.033,0.004-1.541-0.528-1.541-1.629v-18.104c0-5.644,2.67-9.443,7.998-11.415
			C464.483,398.196,465.539,398.031,466.997,397.911 M459.09,408.835v0.418c0,2.974,1.441,5.275,4.319,6.923
			c1.042,0.537,2.159,0.818,3.351,0.818h0.489c3.092,0,5.461-1.597,7.087-4.804c0.38-1.008,0.575-1.987,0.575-2.923v-0.416
			c0-2.484-1.131-4.577-3.412-6.279c-1.356-0.926-2.878-1.389-4.584-1.389c-3.372,0-5.849,1.769-7.396,5.31
			C459.227,407.343,459.09,408.128,459.09,408.835"/>
		<path fill="#FFFFFF" d="M484.242,397.689c1.158,0,1.59,0.732,1.59,1.412v19.781c0,0.818-0.428,1.497-1.59,1.497h-0.091
			c-1.138,0-1.56-0.661-1.56-1.652v-19.144C482.599,398.214,483.031,397.689,484.242,397.689 M485.868,393.716
			c0,0.918-0.74,1.662-1.662,1.662c-0.921,0-1.664-0.744-1.664-1.662c0-0.921,0.743-1.66,1.664-1.66
			C485.128,392.056,485.868,392.795,485.868,393.716"/>
		<path fill="#FFFFFF" d="M507.662,414.854c1.037-0.6,2.221,0.365,2.401,1.413v0.059c0,0.932-1.595,2.768-5.289,3.725
			c-0.77,0.195-2.066,0.33-2.64,0.33h-0.661c-3.043,0-5.866-1.43-8.482-4.292c-1.596-2.265-2.399-4.599-2.399-7.006
			c0-3.674,1.621-6.751,4.869-9.253c2.071-1.363,4.216-2.05,6.431-2.05c2.913,0,5.555,1.096,7.933,3.284
			c0.159,0.292,0.245,0.577,0.245,0.836v0.088c-0.194,1.051-0.716,1.563-1.565,1.563h-0.094c-0.391,0-0.756-0.422-2.637-1.563
			c-1.167-0.705-2.434-0.924-3.631-0.924h-0.488c-3.202,0-5.627,1.682-7.274,5.047c-0.384,1.13-0.574,2.149-0.574,3.059
			c0,3.263,1.681,5.733,5.043,7.431c1.014,0.376,2.084,0.569,3.217,0.569C503.958,417.164,505.824,416.395,507.662,414.854"/>
		<path fill="#FFFFFF" d="M541.805,397.847c1.17,0,1.564,0.729,1.564,1.406v1.807c2.382-2.143,4.976-3.213,7.803-3.213
			c3.093,0,5.838,1.29,8.236,3.874c1.748,2.159,2.617,4.43,2.617,6.806v10.47c0,0.718-0.517,1.18-1.563,1.384h-0.092
			c-1.041-0.195-1.563-0.718-1.563-1.563v-9.211c0-4.128-1.775-6.84-5.329-8.147c-0.864-0.219-1.639-0.329-2.309-0.329h-0.241
			c-2.981,0-5.293,1.532-6.915,4.625c-0.43,0.942-0.64,2.443-0.64,4.515v8.64c0,0.81-0.449,1.476-1.567,1.476h-0.087
			c-1.259,0-1.562-0.581-1.562-1.654v-18.984C540.288,398.478,540.579,397.847,541.805,397.847"/>
		<path fill="#FFFFFF" d="M582.626,414.854c1.441-0.824,2.396,0.504,2.396,1.413v0.059c0,1.131-2.442,2.846-5.286,3.725
			c-1.154,0.356-2.069,0.33-2.641,0.33h-0.663c-3.039,0-5.872-1.43-8.475-4.292c-1.597-2.265-2.402-4.599-2.402-7.006
			c0-3.674,1.62-6.751,4.871-9.253c2.066-1.363,4.212-2.05,6.43-2.05c2.911,0,5.551,1.096,7.931,3.284
			c0.16,0.292,0.243,0.577,0.243,0.836v0.088c-0.196,1.051-0.715,1.563-1.565,1.563h-0.088c-0.402,0-0.804-0.475-2.645-1.563
			c-1.18-0.69-2.43-0.924-3.631-0.924h-0.49c-3.198,0-5.618,1.682-7.27,5.047c-0.383,1.13-0.575,2.149-0.575,3.059
			c0,3.263,1.679,5.733,5.047,7.431c1.008,0.376,2.082,0.569,3.215,0.569C578.924,417.164,580.791,416.395,582.626,414.854"/>
		<path fill="#FFFFFF" d="M625.778,397.911c2.881,0,5.485,1.088,7.817,3.262c2.236,2.351,3.351,4.984,3.351,7.909
			c0,4.179-1.982,7.474-5.943,9.862c-1.716,0.87-3.383,1.301-4.979,1.301h-0.661c-2.588,0-5.118-1.125-7.578-3.35v11.26
			c0,0.688-0.389,1.387-1.629,1.387c-0.967,0-1.536-0.636-1.536-1.629v-18.104c0-5.644,2.663-9.443,7.994-11.415
			C623.27,398.196,624.254,397.911,625.778,397.911 M617.868,408.835v0.418c0,2.974,1.443,5.275,4.325,6.923
			c1.041,0.537,2.151,0.818,3.352,0.818h0.482c3.098,0,5.463-1.597,7.092-4.804c0.38-1.008,0.57-1.987,0.57-2.923v-0.416
			c0-2.484-1.131-4.577-3.41-6.279c-1.355-0.926-2.877-1.389-4.575-1.389c-3.387,0-5.849,1.769-7.405,5.31
			C618.009,407.343,617.868,408.128,617.868,408.835"/>
		<path fill="#FFFFFF" d="M640.825,398.327h2.864v-6.778c0.011-1.096,0.091-1.786,1.383-1.786h0.312c1.182,0,1.451,0.64,1.451,1.301
			v7.274h3.326l0.738-0.021c0.749,0,1.496,0.544,1.512,1.56c0.016,0.742-0.347,1.46-1.364,1.517l-1.216,0.011h-2.992v11.87
			c0,2.073,0.676,3.345,2.022,3.812c0,0,0.794,0.197,1.854,0.155c0.229-0.009,0.9,0,0.9,0c0.705,0,1.432,0.506,1.366,1.54v0.069
			c0.002,1.009-0.688,1.538-1.543,1.538h-1.695c-2.575,0-4.48-1.402-5.727-4.205c-0.219-0.69-0.332-1.505-0.332-2.425v-12.362
			h-1.611l-1.298-0.018c-0.868,0-1.364-0.585-1.361-1.509c0.002-1.043,0.656-1.538,1.445-1.538"/>
		<path fill="#FFFFFF" d="M524.878,397.859c2.908,0,5.538,1.1,7.909,3.295c2.239,2.366,3.366,5.025,3.366,7.975
			c0,4.22-2,7.538-5.998,9.962c-1.73,0.873-3.401,1.301-5.028,1.301h-0.661c-3.023,0-5.842-1.421-8.457-4.267
			c-1.597-2.256-2.393-4.589-2.393-6.99c0-3.66,1.614-6.734,4.848-9.213C520.522,398.545,522.657,397.859,524.878,397.859
			 M516.905,408.885v0.396c0,3.013,1.448,5.339,4.36,6.998c1.048,0.54,2.17,0.818,3.368,0.818h0.483c3.116,0,5.5-1.615,7.152-4.846
			c0.384-1.02,0.576-2.008,0.576-2.971v-0.396c0-2.51-1.151-4.625-3.452-6.335c-1.349-0.928-2.881-1.396-4.606-1.396
			c-3.408,0-5.907,1.779-7.479,5.336C517.043,407.361,516.905,408.161,516.905,408.885"/>
		<path fill="#FFFFFF" d="M599.404,397.829c-1.669,0-3.467,0.473-5.355,1.408c-3.899,2.443-5.854,5.72-5.854,9.841
			c0,1.947,0.487,3.805,1.465,5.593c2.429,3.78,5.66,5.66,9.704,5.66h0.567c3.597-0.137,5.737-1.679,6.103-2.416
			c0,0,0.344-0.381-0.376-1.355c-0.781-1.06-1.765-0.566-1.765-0.566c-1.006,0.539-2.248,1.144-4.367,1.144
			c-1.101,0-2.277-0.289-3.539-0.77c-2.143-1.157-3.533-2.844-4.172-5.028c0,0-0.247-0.741-0.292-1.516
			c-0.061-1.063,0.038-1.71,0.038-1.71c0.126-1.008,0.489-1.987,1.07-3.014c1.7-2.575,3.992-3.883,7.4-3.83
			c1.758,0,3.63,0.787,5.339,2.552c1.021,1.144,1.977,3.076,1.977,4.376h-1.666c-0.471,0.14-0.69,0.731-0.69,1.575
			c0,0.75,0.274,1.39,0.69,1.453h3.467c1.443,0,1.731-0.508,1.731-1.56v-0.427c0-1.893-0.498-3.63-1.314-5.248
			C607.145,399.887,603.742,397.829,599.404,397.829"/>
		<path fill="#FFFFFF" d="M599.971,407.343c0,0.738,0.594,1.345,1.341,1.345c0.739,0,1.348-0.606,1.348-1.345
			c0-0.741-0.606-1.35-1.348-1.35C600.569,405.997,599.971,406.602,599.971,407.343"/>
	</g>
	<g opacity="0.7">
		<path fill="#FFFFFF" d="M381.376,398.396v-3.574h9.842c2.1,0,3.803,0.53,5.108,1.588c1.306,1.057,1.958,2.521,1.958,4.392
			c0,1.194-0.264,2.211-0.792,3.051s-1.166,1.466-1.915,1.878v0.059c1.206,0.34,2.13,1.004,2.77,1.991
			c0.641,0.988,0.961,2.085,0.961,3.289c0,2.173-0.748,3.823-2.242,4.952c-1.494,1.128-3.39,1.692-5.685,1.692h-5.716
			c-0.759,0-1.313-0.174-1.666-0.52c-0.354-0.347-0.529-0.903-0.529-1.669v-17.129H381.376z M387.689,404.362h3.604
			c0.861,0,1.538-0.285,2.031-0.854c0.494-0.568,0.74-1.295,0.74-2.178s-0.246-1.594-0.74-2.13
			c-0.493-0.537-1.191-0.805-2.094-0.805h-3.542V404.362z M387.689,413.431c0,0.472,0.235,0.708,0.708,0.708h3.291
			c1.008,0,1.797-0.307,2.369-0.921s0.857-1.414,0.857-2.401c0-0.965-0.291-1.755-0.873-2.369s-1.367-0.921-2.354-0.921h-3.999
			V413.431z"/>
		<path fill="#FFFFFF" d="M400.614,422.753l1.574-2.962c0.662,0.745,1.449,1.117,2.362,1.117c1.228,0,2.13-0.688,2.708-2.064
			l0.551-1.242l-5.479-12.177c-0.146-0.383-0.441-0.575-0.882-0.575h-0.472v-3.573h2.707c0.578,0,1.026,0.118,1.346,0.354
			c0.32,0.234,0.591,0.631,0.812,1.186l3.228,8.204l0.566,2.186h0.079c0.168-0.901,0.347-1.63,0.535-2.186l2.817-8.204
			c0.348-1.027,1.076-1.54,2.189-1.54h2.771v3.573h-0.488c-0.472,0-0.782,0.192-0.929,0.575l-5.904,14.661
			c-0.556,1.44-1.361,2.533-2.416,3.278s-2.229,1.118-3.52,1.118c-1.595,0-2.949-0.545-4.061-1.632L400.614,422.753z"/>
	</g>
</g>
<g id="Calque_2" display="none">
</g>
</svg>
