<?xml version="1.0" encoding="utf-8"?>
<!-- Generator: Adobe Illustrator 22.1.0, SVG Export Plug-In . SVG Version: 6.00 Build 0)  -->
<svg version="1.1" xmlns="http://www.w3.org/2000/svg" xmlns:xlink="http://www.w3.org/1999/xlink" x="0px" y="0px"
	 viewBox="0 0 644 115" style="enable-background:new 0 0 644 115;" xml:space="preserve">
<style type="text/css">
	.st0{fill:#FFC655;}
	.st1{fill:#FFFFFF;}
	.st2{display:none;fill:#FFFFFF;}
	.st3{font-family:'CenturyGothic';}
	.st4{font-size:55.6434px;}
</style>
<g id="Calque_1">
	<circle class="st0" cx="57.5" cy="58.5" r="47.5"/>
	<circle class="st1" cx="87.6" cy="64.9" r="15.8"/>
	<circle class="st1" cx="69.1" cy="89.2" r="13.4"/>
	<circle class="st1" cx="64.5" cy="33.8" r="20.6"/>
</g>
<g id="Calque_2">
	<g>
		<path class="st1" d="M125.9,35.9h20v3.9h-16v12.5h16v3.9h-16v19.6h-4V35.9z"/>
		<path class="st1" d="M177.1,66l3.2,1.7c-1.1,2.1-2.3,3.7-3.6,5c-1.4,1.3-2.9,2.2-4.7,2.9c-1.7,0.7-3.7,1-5.8,1
			c-4.8,0-8.6-1.6-11.3-4.7c-2.7-3.2-4.1-6.7-4.1-10.7c0-3.7,1.2-7.1,3.5-10c2.9-3.7,6.8-5.6,11.7-5.6c5,0,9.1,1.9,12.1,5.7
			c2.1,2.7,3.2,6.1,3.3,10.1h-26.6c0.1,3.4,1.2,6.2,3.3,8.4c2.1,2.2,4.7,3.3,7.9,3.3c1.5,0,3-0.3,4.4-0.8c1.4-0.5,2.6-1.2,3.6-2.1
			C174.9,69.4,175.9,68,177.1,66z M177.1,58.1c-0.5-2-1.2-3.7-2.2-4.9c-1-1.2-2.3-2.2-3.8-2.9c-1.6-0.7-3.3-1.1-5-1.1
			c-2.9,0-5.4,0.9-7.5,2.8c-1.5,1.4-2.7,3.4-3.5,6.1H177.1z"/>
		<path class="st1" d="M213.3,66l3.2,1.7c-1.1,2.1-2.3,3.7-3.6,5c-1.4,1.3-2.9,2.2-4.7,2.9c-1.7,0.7-3.7,1-5.8,1
			c-4.8,0-8.6-1.6-11.3-4.7c-2.7-3.2-4.1-6.7-4.1-10.7c0-3.7,1.2-7.1,3.5-10c2.9-3.7,6.8-5.6,11.7-5.6c5,0,9.1,1.9,12.1,5.7
			c2.1,2.7,3.2,6.1,3.3,10.1h-26.6c0.1,3.4,1.2,6.2,3.3,8.4c2.1,2.2,4.7,3.3,7.9,3.3c1.5,0,3-0.3,4.4-0.8c1.4-0.5,2.6-1.2,3.6-2.1
			C211,69.4,212.1,68,213.3,66z M213.3,58.1c-0.5-2-1.2-3.7-2.2-4.9c-1-1.2-2.3-2.2-3.8-2.9c-1.6-0.7-3.3-1.1-5-1.1
			c-2.9,0-5.4,0.9-7.5,2.8c-1.5,1.4-2.7,3.4-3.5,6.1H213.3z"/>
		<path class="st1" d="M254,34.9v41h-3.8v-5.1c-1.6,1.9-3.4,3.4-5.4,4.4c-2,1-4.2,1.5-6.5,1.5c-4.2,0-7.8-1.5-10.7-4.6
			c-3-3-4.4-6.7-4.4-11.1c0-4.3,1.5-7.9,4.5-10.9c3-3,6.6-4.5,10.8-4.5c2.4,0,4.6,0.5,6.6,1.5c2,1,3.7,2.6,5.2,4.6V34.9H254z
			 M238.8,49.2c-2.1,0-4.1,0.5-5.9,1.6c-1.8,1-3.2,2.5-4.3,4.4c-1.1,1.9-1.6,3.9-1.6,6c0,2.1,0.5,4.1,1.6,6c1.1,1.9,2.5,3.4,4.3,4.4
			s3.7,1.6,5.8,1.6c2.1,0,4.1-0.5,5.9-1.6c1.9-1,3.3-2.5,4.3-4.3s1.5-3.8,1.5-6.1c0-3.4-1.1-6.3-3.4-8.6
			C244.9,50.3,242.1,49.2,238.8,49.2z"/>
		<path class="st1" d="M262.9,75.8v-41h3.8v16.5c1.6-2,3.4-3.4,5.3-4.4c2-1,4.1-1.5,6.5-1.5c4.2,0,7.7,1.5,10.7,4.6
			c3,3,4.4,6.7,4.4,11c0,4.3-1.5,7.9-4.5,10.9c-3,3-6.6,4.5-10.8,4.5c-2.4,0-4.6-0.5-6.5-1.5s-3.7-2.6-5.2-4.6v5.4H262.9z
			 M278.1,72.9c2.1,0,4.1-0.5,5.9-1.6c1.8-1,3.2-2.5,4.3-4.4c1.1-1.9,1.6-3.9,1.6-6c0-2.1-0.5-4.1-1.6-6c-1.1-1.9-2.5-3.4-4.3-4.4
			c-1.8-1.1-3.7-1.6-5.8-1.6c-2.1,0-4.1,0.5-5.9,1.6c-1.9,1.1-3.3,2.5-4.3,4.3s-1.5,3.8-1.5,6.1c0,3.4,1.1,6.3,3.4,8.6
			C272.1,71.8,274.8,72.9,278.1,72.9z"/>
		<path class="st1" d="M330.1,46.3v29.6h-3.7v-5.1c-1.6,1.9-3.4,3.4-5.4,4.4c-2,1-4.2,1.5-6.5,1.5c-4.2,0-7.8-1.5-10.7-4.6
			c-3-3-4.4-6.7-4.4-11.1c0-4.3,1.5-7.9,4.5-10.9c3-3,6.6-4.5,10.8-4.5c2.4,0,4.6,0.5,6.6,1.5c2,1,3.7,2.6,5.2,4.6v-5.4H330.1z
			 M314.9,49.2c-2.1,0-4.1,0.5-5.9,1.6s-3.2,2.5-4.3,4.4c-1.1,1.9-1.6,3.9-1.6,6c0,2.1,0.5,4.1,1.6,6s2.5,3.4,4.3,4.4
			c1.8,1.1,3.7,1.6,5.8,1.6c2.1,0,4.1-0.5,5.9-1.6s3.3-2.5,4.3-4.3c1-1.8,1.5-3.8,1.5-6.1c0-3.4-1.1-6.3-3.4-8.6
			C320.9,50.3,318.2,49.2,314.9,49.2z"/>
		<path class="st1" d="M367.3,52.4l-3,1.9c-2.6-3.5-6.2-5.2-10.7-5.2c-3.6,0-6.6,1.2-9,3.5c-2.4,2.3-3.6,5.1-3.6,8.4
			c0,2.2,0.5,4.2,1.6,6.1c1.1,1.9,2.6,3.4,4.5,4.4c1.9,1,4,1.6,6.4,1.6c4.3,0,7.9-1.7,10.6-5.2l3,2c-1.4,2.1-3.3,3.8-5.7,5
			s-5.1,1.8-8.1,1.8c-4.7,0-8.5-1.5-11.6-4.5c-3.1-3-4.6-6.6-4.6-10.8c0-2.9,0.7-5.5,2.2-8c1.4-2.5,3.4-4.4,5.9-5.7
			c2.5-1.4,5.3-2.1,8.5-2.1c2,0,3.8,0.3,5.7,0.9c1.8,0.6,3.4,1.4,4.6,2.3S366.4,50.9,367.3,52.4z"/>
		<path class="st1" d="M374.6,34.9h3.8v23.3l13.7-11.9h5.6l-16.2,14.1l17.2,15.5h-5.4l-14.9-13.3v13.3h-3.8V34.9z"/>
		<path class="st1" d="M418.6,35.9h22.9v3.9h-18.9v12.5h18.7v3.9h-18.7v15.7h18.7v3.9h-22.7V35.9z"/>
		<path class="st1" d="M444.4,46.3h4.6l7.9,10.8l7.8-10.8h4.6l-10.1,14l11.3,15.6h-4.6l-9-12.4l-8.9,12.4h-4.5l11.2-15.6L444.4,46.3
			z"/>
		<path class="st1" d="M474.6,46.3h3.8v5.4c1.5-2.1,3.2-3.6,5.2-4.6c2-1,4.1-1.5,6.5-1.5c4.2,0,7.8,1.5,10.8,4.5
			c3,3,4.5,6.7,4.5,10.9c0,4.3-1.5,8-4.4,11.1c-3,3-6.5,4.6-10.7,4.6c-2.4,0-4.5-0.5-6.5-1.5c-2-1-3.8-2.4-5.3-4.4v15.9h-3.8V46.3z
			 M489.8,49.2c-3.3,0-6.1,1.1-8.3,3.4c-2.2,2.3-3.4,5.2-3.4,8.6c0,2.2,0.5,4.3,1.5,6.1s2.4,3.2,4.3,4.3c1.9,1,3.8,1.6,5.9,1.6
			c2,0,4-0.5,5.8-1.6c1.8-1.1,3.2-2.5,4.3-4.4c1.1-1.9,1.6-3.9,1.6-6c0-2.1-0.5-4.1-1.6-6c-1.1-1.9-2.5-3.3-4.3-4.4
			C493.8,49.7,491.9,49.2,489.8,49.2z"/>
		<path class="st1" d="M511.9,34.9h3.8v41h-3.8V34.9z"/>
		<path class="st1" d="M537.6,45.5c4.6,0,8.3,1.6,11.3,4.9c2.7,3,4.1,6.6,4.1,10.7c0,4.1-1.4,7.7-4.3,10.8
			c-2.9,3.1-6.6,4.6-11.1,4.6c-4.5,0-8.2-1.5-11.1-4.6c-2.9-3.1-4.3-6.7-4.3-10.8c0-4.1,1.4-7.6,4.1-10.7
			C529.2,47.2,533,45.5,537.6,45.5z M537.6,49.2c-3.2,0-5.9,1.2-8.2,3.5c-2.3,2.3-3.4,5.2-3.4,8.5c0,2.1,0.5,4.1,1.6,6
			s2.4,3.3,4.2,4.3c1.8,1,3.7,1.5,5.8,1.5s4-0.5,5.8-1.5c1.8-1,3.2-2.4,4.2-4.3s1.6-3.8,1.6-6c0-3.3-1.1-6.1-3.4-8.5
			C543.4,50.4,540.7,49.2,537.6,49.2z"/>
		<path class="st1" d="M558.6,46.3h3.9v4.3c1.2-1.7,2.4-3,3.7-3.8c1.3-0.8,2.6-1.3,4-1.3c1,0,2.2,0.3,3.4,1l-2,3.2
			c-0.8-0.3-1.5-0.5-2-0.5c-1.3,0-2.5,0.5-3.7,1.6c-1.2,1-2.1,2.7-2.7,4.9c-0.5,1.7-0.7,5.1-0.7,10.2v10h-3.9V46.3z"/>
		<path class="st1" d="M601.4,66l3.2,1.7c-1.1,2.1-2.3,3.7-3.6,5c-1.4,1.3-2.9,2.2-4.7,2.9c-1.7,0.7-3.7,1-5.8,1
			c-4.8,0-8.6-1.6-11.3-4.7c-2.7-3.2-4.1-6.7-4.1-10.7c0-3.7,1.2-7.1,3.5-10c2.9-3.7,6.8-5.6,11.7-5.6c5,0,9.1,1.9,12.1,5.7
			c2.1,2.7,3.2,6.1,3.3,10.1H579c0.1,3.4,1.2,6.2,3.3,8.4c2.1,2.2,4.7,3.3,7.9,3.3c1.5,0,3-0.3,4.4-0.8c1.4-0.5,2.6-1.2,3.6-2.1
			C599.2,69.4,600.3,68,601.4,66z M601.4,58.1c-0.5-2-1.2-3.7-2.2-4.9c-1-1.2-2.3-2.2-3.8-2.9c-1.6-0.7-3.3-1.1-5-1.1
			c-2.9,0-5.4,0.9-7.5,2.8c-1.5,1.4-2.7,3.4-3.5,6.1H601.4z"/>
		<path class="st1" d="M611.3,46.3h3.9v4.3c1.2-1.7,2.4-3,3.7-3.8c1.3-0.8,2.6-1.3,4-1.3c1,0,2.2,0.3,3.4,1l-2,3.2
			c-0.8-0.3-1.5-0.5-2-0.5c-1.3,0-2.5,0.5-3.7,1.6c-1.2,1-2.1,2.7-2.7,4.9c-0.5,1.7-0.7,5.1-0.7,10.2v10h-3.9V46.3z"/>
	</g>
	<text transform="matrix(1 0 0 1 120.999 75.833)" class="st2 st3 st4">Feedback Explorer</text>
</g>
</svg>
